<svg xmlns="http://www.w3.org/2000/svg" version="1.1" xmlns:xlink="http://www.w3.org/1999/xlink" xmlns:svgjs="http://svgjs.dev/svgjs" width="2000" height="2242" viewBox="0 0 2000 2242"><g transform="matrix(1,0,0,1,-3.115264797507507,0)"><svg viewBox="0 0 321 360" data-background-color="#000000" preserveAspectRatio="xMidYMid meet" height="2242" width="2000" xmlns="http://www.w3.org/2000/svg" xmlns:xlink="http://www.w3.org/1999/xlink"><g id="tight-bounds" transform="matrix(1,0,0,1,0.5,0)"><svg viewBox="0 0 320 360" height="360" width="320"><rect width="320.0000000000001" height="360" fill="url(#32293bc3-7360-45a9-aa8d-db798e1dd78e)" mask="url(#6fdb0f42-8d3a-4243-96c0-495317682114)" data-fill-palette-color="tertiary"></rect><g><svg></svg></g><g><svg viewBox="0 0 320 360" height="360" width="320"><g><path d="M20.961 227.22l3.726 4.658-1.863-6.056c-0.466-2.795-3.726 0.466-1.863 1.398M25.153 224.425c1.397 2.329 2.795 4.658 2.795 6.987 0 3.261 2.795 4.658 5.123 5.589-3.261-3.726-5.124-13.974-7.918-12.576M204.017 26.929c7.918 0 15.371-0.932 23.756 0.931 20.495 5.124 37.729 15.371 49.374 29.811l32.606 52.169c1.397 13.042 4.192 27.482 3.726 43.319 3.261 0 2.795-4.658 6.521-5.59-3.726 9.316-5.59 20.961-6.521 34.469-2.329-7.453 0-18.632 0.466-24.687-3.261 5.124-5.124 1.397-5.124-0.932 0.466-3.726-1.397-3.261-2.795-4.658-5.124-4.658-8.384-9.782-12.11-17.7 2.329-6.055 2.795-14.905-4.658-19.563-2.329-1.397-5.124-3.726-6.521-7.453-1.863-5.124-5.124-11.179-4.193-19.097 0.466-2.329-6.987 5.124-11.179 1.863-18.166-12.576-36.332-27.016-58.224-39.127-11.645 0-20.029-4.192-24.221-9.316-3.726-4.658-0.932-10.713 4.658-11.179 3.261 0 6.987-0.932 9.782 0.932 0.466-1.863 2.329-4.192 4.657-4.192M157.904 16.215l0.932 0.466c4.658 0.932 6.987 7.453 12.11 5.124 0 3.261 0.466 6.521-0.466 8.85-1.397 3.726-5.59 3.726-8.85 3.726-31.208-1.863-49.374 11.179-68.471 22.358-5.124 3.261-10.713 5.59-14.906 9.782-20.029 18.632-41.921 35.866-47.045 70.335l-4.192 38.195c-0.466 4.192-5.124 8.384-4.192 13.508l3.26 22.824c-3.261-3.261-5.124 0.932-4.192 2.795 0.466 1.397 2.329 6.055 5.124 1.863 3.726 6.987 7.453 20.495 12.576 26.55 15.837 18.632 36.332 35.4 53.101 52.169 4.192-0.932 7.453-0.932 8.384-3.727 1.397 2.795-1.397 5.59-3.726 6.056 7.453 4.658 15.837 8.85 27.016 9.781 14.44 0.932 27.948 3.261 40.524 6.522 6.521-1.863 13.042-2.795 20.029-3.261 2.329 0 3.726-3.726 6.521-4.658l0.466-4.658c2.795 4.192 2.329-1.397 0.466-4.192 3.261 2.795 4.192 5.124 5.589 6.987 0-1.397 3.726-6.521 3.727-0.466l0.931-6.055c1.397-0.932 1.863 5.124 3.261 0.931 1.397-4.192 4.192-0.932 6.987-2.329-0.932 1.863-0.466 5.59 2.794 3.261l3.727-3.261c2.329 5.59 6.055 3.261 7.918 2.329 20.495-13.042 40.99-28.413 60.553-43.784l-0.466 6.055 2.329-7.453c2.329 2.329 4.192 0.466 5.124-0.931 2.795-4.658 6.521-9.316 12.577-13.508-7.453 20.029-16.303 35.866-27.482 48.908l-4.658 5.59c0 3.261-0.932 7.453-4.658 7.918-1.863 0.466-5.59-0.932-8.384 1.863-1.397 1.863 3.261 5.59-0.466 2.795-3.261-2.329-6.521 0-10.248 0.932-2.795 0.932 1.863 3.726 2.795 5.589 0.932 1.863 1.863 3.726 1.398 6.056l-5.124-5.59c-6.055 3.261-9.782 9.316-14.906 13.974-2.329 1.863-1.397 5.124-1.397 7.918-3.261 0-6.987-0.932-8.85 0.932-1.397 1.863-0.932 4.658-0.932 7.453-4.658-0.466-5.124-7.453-9.315-6.056-4.192 0.932-8.85 1.397-12.577 3.727 2.795 5.59-4.658 2.329-3.726 3.26-6.987-4.192-13.042-7.453-20.495-4.658-15.837-5.124-35.4-2.795-49.84-0.931 0-2.329 0.466-4.658-0.466-5.124-0.932 2.329-3.726 1.397-3.26 1.397-8.85-6.055-17.7-9.782-27.016-14.905-8.384 0.932-16.303-3.261-18.632-5.59-6.521-6.055-13.974-2.795-20.029-4.192-13.042-3.261-17.7-16.769-19.098-26.084-0.932-4.658-4.658-6.521-6.055-6.056-6.055-19.563-15.371-37.263-22.824-55.429-1.863-4.658-1.397-9.316-1.397-14.44 2.329 0.932 4.658 0.466 4.192-2.794-2.329-15.371-7.918-27.016-13.974-38.195 3.261-15.837 3.726-34.469 11.179-48.443 6.521-12.576 18.632-19.098 27.016-29.811 2.795-3.726 2.795-8.85 5.59-12.11 9.316-9.316 18.632-19.098 28.879-27.482 4.658-3.726 10.247 0 17.234-1.397 2.329-8.384 11.645-15.837 20.495-13.508 3.726 0.932 11.179-8.85 13.508-9.782 3.726-1.397 1.863 3.726 1.863 6.987 8.85-6.987 20.961-10.713 32.14-14.906" fill="url(#32293bc3-7360-45a9-aa8d-db798e1dd78e)" fill-rule="nonzero" stroke="none" stroke-width="1" stroke-linecap="butt" stroke-linejoin="miter" stroke-miterlimit="10" stroke-dasharray="" stroke-dashoffset="0" font-family="none" font-weight="none" font-size="none" text-anchor="none" style="mix-blend-mode: normal" data-fill-palette-color="tertiary"></path></g><g transform="matrix(1,0,0,1,64.00000000000001,142.0785046728972)"><svg viewBox="0 0 191.99999999999997 75.8429906542056" height="75.8429906542056" width="191.99999999999997"><g><svg viewBox="0 0 191.99999999999997 75.8429906542056" height="75.8429906542056" width="191.99999999999997"><g><svg viewBox="0 0 191.99999999999997 75.8429906542056" height="75.8429906542056" width="191.99999999999997"><g><svg viewBox="0 0 191.99999999999997 75.8429906542056" height="75.8429906542056" width="191.99999999999997"><g id="textblocktransform"><svg viewBox="0 0 191.99999999999997 75.8429906542056" height="75.8429906542056" width="191.99999999999997" id="textblock"><g><svg viewBox="0 0 191.99999999999997 75.8429906542056" height="75.8429906542056" width="191.99999999999997"><g transform="matrix(1,0,0,1,0,0)"><svg width="191.99999999999997" viewBox="2.7 -31.05 80.25 31.7" height="75.8429906542056" data-palette-color="url(#219ef641-9cce-4201-8a24-3477f749e876)"></svg></g></svg></g></svg></g></svg></g><g></g></svg></g></svg></g></svg></g></svg></g><defs></defs><mask id="f78a8490-71a7-4ff8-962b-aaaed7fd88dc"><g id="SvgjsG2883"><svg viewBox="0 0 320 360" height="360" width="320"><g><svg></svg></g><g><svg viewBox="0 0 320 360" height="360" width="320"><g><path d="M20.961 227.22l3.726 4.658-1.863-6.056c-0.466-2.795-3.726 0.466-1.863 1.398M25.153 224.425c1.397 2.329 2.795 4.658 2.795 6.987 0 3.261 2.795 4.658 5.123 5.589-3.261-3.726-5.124-13.974-7.918-12.576M204.017 26.929c7.918 0 15.371-0.932 23.756 0.931 20.495 5.124 37.729 15.371 49.374 29.811l32.606 52.169c1.397 13.042 4.192 27.482 3.726 43.319 3.261 0 2.795-4.658 6.521-5.59-3.726 9.316-5.59 20.961-6.521 34.469-2.329-7.453 0-18.632 0.466-24.687-3.261 5.124-5.124 1.397-5.124-0.932 0.466-3.726-1.397-3.261-2.795-4.658-5.124-4.658-8.384-9.782-12.11-17.7 2.329-6.055 2.795-14.905-4.658-19.563-2.329-1.397-5.124-3.726-6.521-7.453-1.863-5.124-5.124-11.179-4.193-19.097 0.466-2.329-6.987 5.124-11.179 1.863-18.166-12.576-36.332-27.016-58.224-39.127-11.645 0-20.029-4.192-24.221-9.316-3.726-4.658-0.932-10.713 4.658-11.179 3.261 0 6.987-0.932 9.782 0.932 0.466-1.863 2.329-4.192 4.657-4.192M157.904 16.215l0.932 0.466c4.658 0.932 6.987 7.453 12.11 5.124 0 3.261 0.466 6.521-0.466 8.85-1.397 3.726-5.59 3.726-8.85 3.726-31.208-1.863-49.374 11.179-68.471 22.358-5.124 3.261-10.713 5.59-14.906 9.782-20.029 18.632-41.921 35.866-47.045 70.335l-4.192 38.195c-0.466 4.192-5.124 8.384-4.192 13.508l3.26 22.824c-3.261-3.261-5.124 0.932-4.192 2.795 0.466 1.397 2.329 6.055 5.124 1.863 3.726 6.987 7.453 20.495 12.576 26.55 15.837 18.632 36.332 35.4 53.101 52.169 4.192-0.932 7.453-0.932 8.384-3.727 1.397 2.795-1.397 5.59-3.726 6.056 7.453 4.658 15.837 8.85 27.016 9.781 14.44 0.932 27.948 3.261 40.524 6.522 6.521-1.863 13.042-2.795 20.029-3.261 2.329 0 3.726-3.726 6.521-4.658l0.466-4.658c2.795 4.192 2.329-1.397 0.466-4.192 3.261 2.795 4.192 5.124 5.589 6.987 0-1.397 3.726-6.521 3.727-0.466l0.931-6.055c1.397-0.932 1.863 5.124 3.261 0.931 1.397-4.192 4.192-0.932 6.987-2.329-0.932 1.863-0.466 5.59 2.794 3.261l3.727-3.261c2.329 5.59 6.055 3.261 7.918 2.329 20.495-13.042 40.99-28.413 60.553-43.784l-0.466 6.055 2.329-7.453c2.329 2.329 4.192 0.466 5.124-0.931 2.795-4.658 6.521-9.316 12.577-13.508-7.453 20.029-16.303 35.866-27.482 48.908l-4.658 5.59c0 3.261-0.932 7.453-4.658 7.918-1.863 0.466-5.59-0.932-8.384 1.863-1.397 1.863 3.261 5.59-0.466 2.795-3.261-2.329-6.521 0-10.248 0.932-2.795 0.932 1.863 3.726 2.795 5.589 0.932 1.863 1.863 3.726 1.398 6.056l-5.124-5.59c-6.055 3.261-9.782 9.316-14.906 13.974-2.329 1.863-1.397 5.124-1.397 7.918-3.261 0-6.987-0.932-8.85 0.932-1.397 1.863-0.932 4.658-0.932 7.453-4.658-0.466-5.124-7.453-9.315-6.056-4.192 0.932-8.85 1.397-12.577 3.727 2.795 5.59-4.658 2.329-3.726 3.26-6.987-4.192-13.042-7.453-20.495-4.658-15.837-5.124-35.4-2.795-49.84-0.931 0-2.329 0.466-4.658-0.466-5.124-0.932 2.329-3.726 1.397-3.26 1.397-8.85-6.055-17.7-9.782-27.016-14.905-8.384 0.932-16.303-3.261-18.632-5.59-6.521-6.055-13.974-2.795-20.029-4.192-13.042-3.261-17.7-16.769-19.098-26.084-0.932-4.658-4.658-6.521-6.055-6.056-6.055-19.563-15.371-37.263-22.824-55.429-1.863-4.658-1.397-9.316-1.397-14.44 2.329 0.932 4.658 0.466 4.192-2.794-2.329-15.371-7.918-27.016-13.974-38.195 3.261-15.837 3.726-34.469 11.179-48.443 6.521-12.576 18.632-19.098 27.016-29.811 2.795-3.726 2.795-8.85 5.59-12.11 9.316-9.316 18.632-19.098 28.879-27.482 4.658-3.726 10.247 0 17.234-1.397 2.329-8.384 11.645-15.837 20.495-13.508 3.726 0.932 11.179-8.85 13.508-9.782 3.726-1.397 1.863 3.726 1.863 6.987 8.85-6.987 20.961-10.713 32.14-14.906" fill="black" fill-rule="nonzero" stroke="none" stroke-width="1" stroke-linecap="butt" stroke-linejoin="miter" stroke-miterlimit="10" stroke-dasharray="" stroke-dashoffset="0" font-family="none" font-weight="none" font-size="none" text-anchor="none" style="mix-blend-mode: normal"></path></g><g transform="matrix(1,0,0,1,64.00000000000001,142.0785046728972)"><svg viewBox="0 0 191.99999999999997 75.8429906542056" height="75.8429906542056" width="191.99999999999997"><g><svg viewBox="0 0 191.99999999999997 75.8429906542056" height="75.8429906542056" width="191.99999999999997"><g><svg viewBox="0 0 191.99999999999997 75.8429906542056" height="75.8429906542056" width="191.99999999999997"><g><svg viewBox="0 0 191.99999999999997 75.8429906542056" height="75.8429906542056" width="191.99999999999997"><g id="SvgjsG2882"><svg viewBox="0 0 191.99999999999997 75.8429906542056" height="75.8429906542056" width="191.99999999999997" id="SvgjsSvg2881"><g><svg viewBox="0 0 191.99999999999997 75.8429906542056" height="75.8429906542056" width="191.99999999999997"><g transform="matrix(1,0,0,1,0,0)"><svg width="191.99999999999997" viewBox="2.7 -31.05 80.25 31.7" height="75.8429906542056" data-palette-color="url(#219ef641-9cce-4201-8a24-3477f749e876)"><path d="M12.85-2.75L12.85-2.75 12.85-2.75Q16.2-2.75 17.93-4.28 19.65-5.8 19.65-8.2L19.65-8.2Q19.65-10.25 18.32-11.6 17-12.95 14.15-13.75L14.15-13.75 9.8-15.05Q7.7-15.7 6.15-16.73 4.6-17.75 3.78-19.28 2.95-20.8 2.95-22.85L2.95-22.85Q2.95-26.7 5.75-28.88 8.55-31.05 13.2-31.05L13.2-31.05Q15.9-31.05 18.03-30.48 20.15-29.9 21.38-29 22.6-28.1 22.6-27.1L22.6-27.1Q22.6-26.45 22.25-25.93 21.9-25.4 21.35-25.1L21.35-25.1Q20.1-26.1 17.98-26.85 15.85-27.6 13.35-27.6L13.35-27.6Q10.45-27.6 8.75-26.33 7.05-25.05 7.05-22.85L7.05-22.85Q7.05-21.1 8.28-20 9.5-18.9 12.25-18.1L12.25-18.1 15.3-17.2Q19.25-16.1 21.53-14 23.8-11.9 23.8-8.2L23.8-8.2Q23.8-4.25 20.93-1.8 18.05 0.65 12.85 0.65L12.85 0.65Q9.8 0.65 7.53-0.03 5.25-0.7 3.98-1.73 2.7-2.75 2.7-3.75L2.7-3.75Q2.7-4.6 3.23-5.18 3.75-5.75 4.45-6L4.45-6Q5.6-4.9 7.7-3.83 9.8-2.75 12.85-2.75ZM47.45-1.3L33.75-15.5 36.9-17.5Q42.2-12.4 46.02-8.4 49.85-4.4 52.5-2L52.5-2Q52.45-0.9 51.85-0.28 51.25 0.35 50.35 0.35L50.35 0.35Q49.5 0.35 48.82-0.15 48.15-0.65 47.45-1.3L47.45-1.3ZM49.7-26.15L37.45-14.1 33.4-15 48.45-30.6Q49.75-30.55 50.4-29.95 51.05-29.35 51.05-28.55L51.05-28.55Q51.05-27.9 50.72-27.33 50.4-26.75 49.7-26.15L49.7-26.15ZM30.6-1.55L30.6-18.35 34.7-18.35 34.7-0.05Q34.4 0.05 33.9 0.18 33.4 0.3 32.8 0.3L32.8 0.3Q31.7 0.3 31.15-0.15 30.6-0.6 30.6-1.55L30.6-1.55ZM34.7-28.8L34.7-15 30.6-15 30.6-30.3Q30.85-30.4 31.37-30.53 31.9-30.65 32.5-30.65L32.5-30.65Q33.6-30.65 34.15-30.23 34.7-29.8 34.7-28.8L34.7-28.8ZM82.95-14.35L82.95-14.35 82.95-3.5Q82.95-2.6 82.42-1.98 81.9-1.35 80.85-0.85L80.85-0.85Q79.6-0.2 77.4 0.23 75.2 0.65 72.95 0.65L72.95 0.65Q68.3 0.65 64.72-1.05 61.15-2.75 59.15-6.25 57.15-9.75 57.15-15.15L57.15-15.15Q57.15-20.5 59.22-24.03 61.3-27.55 64.75-29.3 68.2-31.05 72.3-31.05L72.3-31.05Q75.15-31.05 77.3-30.45 79.45-29.85 80.65-28.95 81.85-28.05 81.85-27.1L81.85-27.1Q81.85-26.45 81.45-25.93 81.05-25.4 80.5-25.15L80.5-25.15Q79.15-26.05 77.3-26.83 75.45-27.6 72.55-27.6L72.55-27.6Q69.4-27.6 66.85-26.2 64.3-24.8 62.82-22.03 61.35-19.25 61.35-15.15L61.35-15.15Q61.35-10.85 62.87-8.13 64.4-5.4 67.05-4.1 69.7-2.8 73-2.8L73-2.8Q74.8-2.8 76.4-3.1 78-3.4 78.9-3.85L78.9-3.85 78.9-13.05 71.35-13.05Q71.2-13.3 71.05-13.73 70.9-14.15 70.9-14.65L70.9-14.65Q70.9-15.5 71.3-15.98 71.7-16.45 72.45-16.45L72.45-16.45 80.8-16.45Q81.7-16.45 82.32-15.88 82.95-15.3 82.95-14.35Z" opacity="1" transform="matrix(1,0,0,1,0,0)" fill="white" class="wordmark-text-0" id="SvgjsPath2880"></path></svg></g></svg></g></svg></g></svg></g><g></g></svg></g></svg></g></svg></g></svg></g><defs><mask></mask></defs></svg><rect width="320" height="360" fill="black" stroke="none" visibility="hidden"></rect></g></mask><linearGradient x1="0.054" x2="0.941" y1="0.5" y2="0.5" id="219ef641-9cce-4201-8a24-3477f749e876"><stop stop-color="#9c7945" offset="0"></stop><stop stop-color="#faf3aa" offset="0.498"></stop><stop stop-color="#9c7945" offset="1"></stop></linearGradient><rect width="320.00000000000006" height="360" fill="url(#219ef641-9cce-4201-8a24-3477f749e876)" mask="url(#f78a8490-71a7-4ff8-962b-aaaed7fd88dc)" data-fill-palette-color="primary"></rect><mask id="6fdb0f42-8d3a-4243-96c0-495317682114"><g id="SvgjsG2906"><svg viewBox="0 0 320 360" height="360" width="320"><g><svg></svg></g><g><svg viewBox="0 0 320 360" height="360" width="320"><g><path d="M20.961 227.22l3.726 4.658-1.863-6.056c-0.466-2.795-3.726 0.466-1.863 1.398M25.153 224.425c1.397 2.329 2.795 4.658 2.795 6.987 0 3.261 2.795 4.658 5.123 5.589-3.261-3.726-5.124-13.974-7.918-12.576M204.017 26.929c7.918 0 15.371-0.932 23.756 0.931 20.495 5.124 37.729 15.371 49.374 29.811l32.606 52.169c1.397 13.042 4.192 27.482 3.726 43.319 3.261 0 2.795-4.658 6.521-5.59-3.726 9.316-5.59 20.961-6.521 34.469-2.329-7.453 0-18.632 0.466-24.687-3.261 5.124-5.124 1.397-5.124-0.932 0.466-3.726-1.397-3.261-2.795-4.658-5.124-4.658-8.384-9.782-12.11-17.7 2.329-6.055 2.795-14.905-4.658-19.563-2.329-1.397-5.124-3.726-6.521-7.453-1.863-5.124-5.124-11.179-4.193-19.097 0.466-2.329-6.987 5.124-11.179 1.863-18.166-12.576-36.332-27.016-58.224-39.127-11.645 0-20.029-4.192-24.221-9.316-3.726-4.658-0.932-10.713 4.658-11.179 3.261 0 6.987-0.932 9.782 0.932 0.466-1.863 2.329-4.192 4.657-4.192M157.904 16.215l0.932 0.466c4.658 0.932 6.987 7.453 12.11 5.124 0 3.261 0.466 6.521-0.466 8.85-1.397 3.726-5.59 3.726-8.85 3.726-31.208-1.863-49.374 11.179-68.471 22.358-5.124 3.261-10.713 5.59-14.906 9.782-20.029 18.632-41.921 35.866-47.045 70.335l-4.192 38.195c-0.466 4.192-5.124 8.384-4.192 13.508l3.26 22.824c-3.261-3.261-5.124 0.932-4.192 2.795 0.466 1.397 2.329 6.055 5.124 1.863 3.726 6.987 7.453 20.495 12.576 26.55 15.837 18.632 36.332 35.4 53.101 52.169 4.192-0.932 7.453-0.932 8.384-3.727 1.397 2.795-1.397 5.59-3.726 6.056 7.453 4.658 15.837 8.85 27.016 9.781 14.44 0.932 27.948 3.261 40.524 6.522 6.521-1.863 13.042-2.795 20.029-3.261 2.329 0 3.726-3.726 6.521-4.658l0.466-4.658c2.795 4.192 2.329-1.397 0.466-4.192 3.261 2.795 4.192 5.124 5.589 6.987 0-1.397 3.726-6.521 3.727-0.466l0.931-6.055c1.397-0.932 1.863 5.124 3.261 0.931 1.397-4.192 4.192-0.932 6.987-2.329-0.932 1.863-0.466 5.59 2.794 3.261l3.727-3.261c2.329 5.59 6.055 3.261 7.918 2.329 20.495-13.042 40.99-28.413 60.553-43.784l-0.466 6.055 2.329-7.453c2.329 2.329 4.192 0.466 5.124-0.931 2.795-4.658 6.521-9.316 12.577-13.508-7.453 20.029-16.303 35.866-27.482 48.908l-4.658 5.59c0 3.261-0.932 7.453-4.658 7.918-1.863 0.466-5.59-0.932-8.384 1.863-1.397 1.863 3.261 5.59-0.466 2.795-3.261-2.329-6.521 0-10.248 0.932-2.795 0.932 1.863 3.726 2.795 5.589 0.932 1.863 1.863 3.726 1.398 6.056l-5.124-5.59c-6.055 3.261-9.782 9.316-14.906 13.974-2.329 1.863-1.397 5.124-1.397 7.918-3.261 0-6.987-0.932-8.85 0.932-1.397 1.863-0.932 4.658-0.932 7.453-4.658-0.466-5.124-7.453-9.315-6.056-4.192 0.932-8.85 1.397-12.577 3.727 2.795 5.59-4.658 2.329-3.726 3.26-6.987-4.192-13.042-7.453-20.495-4.658-15.837-5.124-35.4-2.795-49.84-0.931 0-2.329 0.466-4.658-0.466-5.124-0.932 2.329-3.726 1.397-3.26 1.397-8.85-6.055-17.7-9.782-27.016-14.905-8.384 0.932-16.303-3.261-18.632-5.59-6.521-6.055-13.974-2.795-20.029-4.192-13.042-3.261-17.7-16.769-19.098-26.084-0.932-4.658-4.658-6.521-6.055-6.056-6.055-19.563-15.371-37.263-22.824-55.429-1.863-4.658-1.397-9.316-1.397-14.44 2.329 0.932 4.658 0.466 4.192-2.794-2.329-15.371-7.918-27.016-13.974-38.195 3.261-15.837 3.726-34.469 11.179-48.443 6.521-12.576 18.632-19.098 27.016-29.811 2.795-3.726 2.795-8.85 5.59-12.11 9.316-9.316 18.632-19.098 28.879-27.482 4.658-3.726 10.247 0 17.234-1.397 2.329-8.384 11.645-15.837 20.495-13.508 3.726 0.932 11.179-8.85 13.508-9.782 3.726-1.397 1.863 3.726 1.863 6.987 8.85-6.987 20.961-10.713 32.14-14.906" fill="white" fill-rule="nonzero" stroke="none" stroke-width="1" stroke-linecap="butt" stroke-linejoin="miter" stroke-miterlimit="10" stroke-dasharray="" stroke-dashoffset="0" font-family="none" font-weight="none" font-size="none" text-anchor="none" style="mix-blend-mode: normal"></path></g><g transform="matrix(1,0,0,1,64.00000000000001,142.0785046728972)"><svg viewBox="0 0 191.99999999999997 75.8429906542056" height="75.8429906542056" width="191.99999999999997"><g><svg viewBox="0 0 191.99999999999997 75.8429906542056" height="75.8429906542056" width="191.99999999999997"><g><svg viewBox="0 0 191.99999999999997 75.8429906542056" height="75.8429906542056" width="191.99999999999997"><g><svg viewBox="0 0 191.99999999999997 75.8429906542056" height="75.8429906542056" width="191.99999999999997"><g id="SvgjsG2905"><svg viewBox="0 0 191.99999999999997 75.8429906542056" height="75.8429906542056" width="191.99999999999997" id="SvgjsSvg2904"><g><svg viewBox="0 0 191.99999999999997 75.8429906542056" height="75.8429906542056" width="191.99999999999997"><g transform="matrix(1,0,0,1,0,0)"><svg width="191.99999999999997" viewBox="2.7 -31.05 80.25 31.7" height="75.8429906542056" data-palette-color="url(#219ef641-9cce-4201-8a24-3477f749e876)"></svg></g></svg></g></svg></g></svg></g><g></g></svg></g></svg></g></svg></g></svg></g><defs><mask></mask></defs><mask><g id="SvgjsG2903"><svg viewBox="0 0 320 360" height="360" width="320"><g><svg></svg></g><g><svg viewBox="0 0 320 360" height="360" width="320"><g><path d="M20.961 227.22l3.726 4.658-1.863-6.056c-0.466-2.795-3.726 0.466-1.863 1.398M25.153 224.425c1.397 2.329 2.795 4.658 2.795 6.987 0 3.261 2.795 4.658 5.123 5.589-3.261-3.726-5.124-13.974-7.918-12.576M204.017 26.929c7.918 0 15.371-0.932 23.756 0.931 20.495 5.124 37.729 15.371 49.374 29.811l32.606 52.169c1.397 13.042 4.192 27.482 3.726 43.319 3.261 0 2.795-4.658 6.521-5.59-3.726 9.316-5.59 20.961-6.521 34.469-2.329-7.453 0-18.632 0.466-24.687-3.261 5.124-5.124 1.397-5.124-0.932 0.466-3.726-1.397-3.261-2.795-4.658-5.124-4.658-8.384-9.782-12.11-17.7 2.329-6.055 2.795-14.905-4.658-19.563-2.329-1.397-5.124-3.726-6.521-7.453-1.863-5.124-5.124-11.179-4.193-19.097 0.466-2.329-6.987 5.124-11.179 1.863-18.166-12.576-36.332-27.016-58.224-39.127-11.645 0-20.029-4.192-24.221-9.316-3.726-4.658-0.932-10.713 4.658-11.179 3.261 0 6.987-0.932 9.782 0.932 0.466-1.863 2.329-4.192 4.657-4.192M157.904 16.215l0.932 0.466c4.658 0.932 6.987 7.453 12.11 5.124 0 3.261 0.466 6.521-0.466 8.85-1.397 3.726-5.59 3.726-8.85 3.726-31.208-1.863-49.374 11.179-68.471 22.358-5.124 3.261-10.713 5.59-14.906 9.782-20.029 18.632-41.921 35.866-47.045 70.335l-4.192 38.195c-0.466 4.192-5.124 8.384-4.192 13.508l3.26 22.824c-3.261-3.261-5.124 0.932-4.192 2.795 0.466 1.397 2.329 6.055 5.124 1.863 3.726 6.987 7.453 20.495 12.576 26.55 15.837 18.632 36.332 35.4 53.101 52.169 4.192-0.932 7.453-0.932 8.384-3.727 1.397 2.795-1.397 5.59-3.726 6.056 7.453 4.658 15.837 8.85 27.016 9.781 14.44 0.932 27.948 3.261 40.524 6.522 6.521-1.863 13.042-2.795 20.029-3.261 2.329 0 3.726-3.726 6.521-4.658l0.466-4.658c2.795 4.192 2.329-1.397 0.466-4.192 3.261 2.795 4.192 5.124 5.589 6.987 0-1.397 3.726-6.521 3.727-0.466l0.931-6.055c1.397-0.932 1.863 5.124 3.261 0.931 1.397-4.192 4.192-0.932 6.987-2.329-0.932 1.863-0.466 5.59 2.794 3.261l3.727-3.261c2.329 5.59 6.055 3.261 7.918 2.329 20.495-13.042 40.99-28.413 60.553-43.784l-0.466 6.055 2.329-7.453c2.329 2.329 4.192 0.466 5.124-0.931 2.795-4.658 6.521-9.316 12.577-13.508-7.453 20.029-16.303 35.866-27.482 48.908l-4.658 5.59c0 3.261-0.932 7.453-4.658 7.918-1.863 0.466-5.59-0.932-8.384 1.863-1.397 1.863 3.261 5.59-0.466 2.795-3.261-2.329-6.521 0-10.248 0.932-2.795 0.932 1.863 3.726 2.795 5.589 0.932 1.863 1.863 3.726 1.398 6.056l-5.124-5.59c-6.055 3.261-9.782 9.316-14.906 13.974-2.329 1.863-1.397 5.124-1.397 7.918-3.261 0-6.987-0.932-8.85 0.932-1.397 1.863-0.932 4.658-0.932 7.453-4.658-0.466-5.124-7.453-9.315-6.056-4.192 0.932-8.85 1.397-12.577 3.727 2.795 5.59-4.658 2.329-3.726 3.26-6.987-4.192-13.042-7.453-20.495-4.658-15.837-5.124-35.4-2.795-49.84-0.931 0-2.329 0.466-4.658-0.466-5.124-0.932 2.329-3.726 1.397-3.26 1.397-8.85-6.055-17.7-9.782-27.016-14.905-8.384 0.932-16.303-3.261-18.632-5.59-6.521-6.055-13.974-2.795-20.029-4.192-13.042-3.261-17.7-16.769-19.098-26.084-0.932-4.658-4.658-6.521-6.055-6.056-6.055-19.563-15.371-37.263-22.824-55.429-1.863-4.658-1.397-9.316-1.397-14.44 2.329 0.932 4.658 0.466 4.192-2.794-2.329-15.371-7.918-27.016-13.974-38.195 3.261-15.837 3.726-34.469 11.179-48.443 6.521-12.576 18.632-19.098 27.016-29.811 2.795-3.726 2.795-8.85 5.59-12.11 9.316-9.316 18.632-19.098 28.879-27.482 4.658-3.726 10.247 0 17.234-1.397 2.329-8.384 11.645-15.837 20.495-13.508 3.726 0.932 11.179-8.85 13.508-9.782 3.726-1.397 1.863 3.726 1.863 6.987 8.85-6.987 20.961-10.713 32.14-14.906" fill="black" fill-rule="nonzero" stroke="none" stroke-width="1" stroke-linecap="butt" stroke-linejoin="miter" stroke-miterlimit="10" stroke-dasharray="" stroke-dashoffset="0" font-family="none" font-weight="none" font-size="none" text-anchor="none" style="mix-blend-mode: normal"></path></g><g transform="matrix(1,0,0,1,64.00000000000001,142.0785046728972)"><svg viewBox="0 0 191.99999999999997 75.8429906542056" height="75.8429906542056" width="191.99999999999997"><g><svg viewBox="0 0 191.99999999999997 75.8429906542056" height="75.8429906542056" width="191.99999999999997"><g><svg viewBox="0 0 191.99999999999997 75.8429906542056" height="75.8429906542056" width="191.99999999999997"><g><svg viewBox="0 0 191.99999999999997 75.8429906542056" height="75.8429906542056" width="191.99999999999997"><g id="SvgjsG2902"><svg viewBox="0 0 191.99999999999997 75.8429906542056" height="75.8429906542056" width="191.99999999999997" id="SvgjsSvg2901"><g><svg viewBox="0 0 191.99999999999997 75.8429906542056" height="75.8429906542056" width="191.99999999999997"><g transform="matrix(1,0,0,1,0,0)"><svg width="191.99999999999997" viewBox="2.7 -31.05 80.25 31.7" height="75.8429906542056" data-palette-color="url(#219ef641-9cce-4201-8a24-3477f749e876)"><path d="M12.85-2.75L12.85-2.75 12.85-2.75Q16.2-2.75 17.93-4.28 19.65-5.8 19.65-8.2L19.65-8.2Q19.65-10.25 18.32-11.6 17-12.95 14.15-13.75L14.15-13.75 9.8-15.05Q7.7-15.7 6.15-16.73 4.6-17.75 3.78-19.28 2.95-20.8 2.95-22.85L2.95-22.85Q2.95-26.7 5.75-28.88 8.55-31.05 13.2-31.05L13.2-31.05Q15.9-31.05 18.03-30.48 20.15-29.9 21.38-29 22.6-28.1 22.6-27.1L22.6-27.1Q22.6-26.45 22.25-25.93 21.9-25.4 21.35-25.1L21.35-25.1Q20.1-26.1 17.98-26.85 15.85-27.6 13.35-27.6L13.35-27.6Q10.45-27.6 8.75-26.33 7.05-25.05 7.05-22.85L7.05-22.85Q7.05-21.1 8.28-20 9.5-18.9 12.25-18.1L12.25-18.1 15.3-17.2Q19.25-16.1 21.53-14 23.8-11.9 23.8-8.2L23.8-8.2Q23.8-4.25 20.93-1.8 18.05 0.65 12.85 0.65L12.85 0.65Q9.8 0.65 7.53-0.03 5.25-0.7 3.98-1.73 2.7-2.75 2.7-3.75L2.7-3.75Q2.7-4.6 3.23-5.18 3.75-5.75 4.45-6L4.45-6Q5.6-4.9 7.7-3.83 9.8-2.75 12.85-2.75ZM47.45-1.3L33.75-15.5 36.9-17.5Q42.2-12.4 46.02-8.4 49.85-4.4 52.5-2L52.5-2Q52.45-0.9 51.85-0.28 51.25 0.35 50.35 0.35L50.35 0.35Q49.5 0.35 48.82-0.15 48.15-0.65 47.45-1.3L47.45-1.3ZM49.7-26.15L37.45-14.1 33.4-15 48.45-30.6Q49.75-30.55 50.4-29.95 51.05-29.35 51.05-28.55L51.05-28.55Q51.05-27.9 50.72-27.33 50.4-26.75 49.7-26.15L49.7-26.15ZM30.6-1.55L30.6-18.35 34.7-18.35 34.7-0.05Q34.4 0.05 33.9 0.18 33.4 0.3 32.8 0.3L32.8 0.3Q31.7 0.3 31.15-0.15 30.6-0.6 30.6-1.55L30.6-1.55ZM34.7-28.8L34.7-15 30.6-15 30.6-30.3Q30.85-30.4 31.37-30.53 31.9-30.65 32.5-30.65L32.5-30.65Q33.6-30.65 34.15-30.23 34.7-29.8 34.7-28.8L34.7-28.8ZM82.95-14.35L82.95-14.35 82.95-3.5Q82.95-2.6 82.42-1.98 81.9-1.35 80.85-0.85L80.85-0.85Q79.6-0.2 77.4 0.23 75.2 0.65 72.95 0.65L72.95 0.65Q68.3 0.65 64.72-1.05 61.15-2.75 59.15-6.25 57.15-9.75 57.15-15.15L57.15-15.15Q57.15-20.5 59.22-24.03 61.3-27.55 64.75-29.3 68.2-31.05 72.3-31.05L72.3-31.05Q75.15-31.05 77.3-30.45 79.45-29.85 80.65-28.95 81.85-28.05 81.85-27.1L81.85-27.1Q81.85-26.45 81.45-25.93 81.05-25.4 80.5-25.15L80.5-25.15Q79.15-26.05 77.3-26.83 75.45-27.6 72.55-27.6L72.55-27.6Q69.4-27.6 66.85-26.2 64.3-24.8 62.82-22.03 61.35-19.25 61.35-15.15L61.35-15.15Q61.35-10.85 62.87-8.13 64.4-5.4 67.05-4.1 69.7-2.8 73-2.8L73-2.8Q74.8-2.8 76.4-3.1 78-3.4 78.9-3.85L78.9-3.85 78.9-13.05 71.35-13.05Q71.2-13.3 71.05-13.73 70.9-14.15 70.9-14.65L70.9-14.65Q70.9-15.5 71.3-15.98 71.7-16.45 72.45-16.45L72.45-16.45 80.8-16.45Q81.7-16.45 82.32-15.88 82.95-15.3 82.95-14.35Z" opacity="1" transform="matrix(1,0,0,1,0,0)" fill="black" class="wordmark-text-0" id="SvgjsPath2900"></path></svg></g></svg></g></svg></g></svg></g><g></g></svg></g></svg></g></svg></g></svg></g><defs><mask></mask></defs></svg><rect width="320" height="360" fill="black" stroke="none" visibility="hidden"></rect></g></mask></svg><rect width="320" height="360" fill="black" stroke="none" visibility="hidden"></rect></g></mask><linearGradient x1="0.054" x2="0.941" y1="0.5" y2="0.5" id="32293bc3-7360-45a9-aa8d-db798e1dd78e"><stop stop-color="#9c7945" offset="0"></stop><stop stop-color="#faf3aa" offset="0.498"></stop><stop stop-color="#9c7945" offset="1"></stop></linearGradient></svg><rect width="320" height="360" fill="none" stroke="none" visibility="hidden"></rect></g></svg></g></svg>